<svg width="560" height="24" viewBox="0 0 560 24" fill="none" xmlns="http://www.w3.org/2000/svg">
<path d="M16.992 0.32C17.504 0.32 17.92 0.490667 18.24 0.832001C18.56 1.17333 18.72 1.6 18.72 2.112V20.768C18.72 21.3227 18.528 21.792 18.144 22.176C17.7813 22.5387 17.3226 22.72 16.768 22.72C16.4906 22.72 16.2026 22.6773 15.904 22.592C15.6266 22.4853 15.4133 22.3467 15.264 22.176L2.68798 6.208L3.51998 5.696V20.928C3.51998 21.44 3.34931 21.8667 3.00798 22.208C2.68798 22.5493 2.26131 22.72 1.72798 22.72C1.21598 22.72 0.799976 22.5493 0.479976 22.208C0.159976 21.8667 -2.43187e-05 21.44 -2.43187e-05 20.928V2.272C-2.43187e-05 1.71733 0.181309 1.25867 0.543976 0.896C0.927976 0.512 1.39731 0.32 1.95198 0.32C2.25064 0.32 2.55998 0.384 2.87998 0.512001C3.19998 0.618668 3.43464 0.789334 3.58398 1.024L15.776 16.576L15.232 16.96V2.112C15.232 1.6 15.392 1.17333 15.712 0.832001C16.032 0.490667 16.4586 0.32 16.992 0.32ZM31.7552 5.344L24.8432 21.6C24.6939 22.0053 24.4592 22.3253 24.1392 22.56C23.8406 22.7733 23.5099 22.88 23.1472 22.88C22.5712 22.88 22.1446 22.72 21.8672 22.4C21.5899 22.08 21.4512 21.6853 21.4512 21.216C21.4512 21.024 21.4832 20.8213 21.5472 20.608L29.5152 1.472C29.6859 1.04533 29.9419 0.714667 30.2832 0.48C30.6459 0.245333 31.0299 0.149333 31.4352 0.191999C31.8192 0.191999 32.1712 0.309333 32.4912 0.544001C32.8326 0.757334 33.0779 1.06667 33.2272 1.472L41.0992 20.224C41.2059 20.5013 41.2592 20.7573 41.2592 20.992C41.2592 21.568 41.0672 22.0267 40.6832 22.368C40.3206 22.7093 39.9152 22.88 39.4672 22.88C39.0832 22.88 38.7312 22.7627 38.4112 22.528C38.1126 22.2933 37.8779 21.9733 37.7072 21.568L30.8272 5.536L31.7552 5.344ZM25.8352 17.696L27.5952 14.016H36.2352L36.8432 17.696H25.8352ZM49.959 22.72C49.3616 22.72 48.871 22.5387 48.487 22.176C48.103 21.792 47.911 21.3227 47.911 20.768V2.208H52.071V20.768C52.071 21.3227 51.8683 21.792 51.463 22.176C51.079 22.5387 50.5776 22.72 49.959 22.72ZM42.887 4C42.3323 4 41.863 3.82933 41.479 3.488C41.1163 3.14667 40.935 2.69867 40.935 2.144C40.935 1.58933 41.1163 1.152 41.479 0.832001C41.863 0.490667 42.3323 0.32 42.887 0.32H57.095C57.6496 0.32 58.1083 0.490667 58.471 0.832001C58.855 1.17333 59.047 1.62133 59.047 2.176C59.047 2.73067 58.855 3.17867 58.471 3.52C58.1083 3.84 57.6496 4 57.095 4H42.887ZM64.4542 0.32C64.9662 0.32 65.4142 0.512 65.7982 0.896C66.2036 1.25867 66.4062 1.71733 66.4062 2.272V20.768C66.4062 21.3227 66.2036 21.792 65.7982 22.176C65.3929 22.5387 64.9236 22.72 64.3902 22.72C63.7929 22.72 63.3129 22.5387 62.9502 22.176C62.5876 21.792 62.4062 21.3227 62.4062 20.768V2.272C62.4062 1.71733 62.5982 1.25867 62.9822 0.896C63.3662 0.512 63.8569 0.32 64.4542 0.32ZM78.6302 0.32C79.2276 0.32 79.7076 0.512 80.0702 0.896C80.4329 1.25867 80.6142 1.71733 80.6142 2.272V20.768C80.6142 21.3227 80.4222 21.792 80.0382 22.176C79.6756 22.5387 79.1849 22.72 78.5662 22.72C78.0542 22.72 77.5956 22.5387 77.1902 22.176C76.8062 21.792 76.6142 21.3227 76.6142 20.768V2.272C76.6142 1.71733 76.8169 1.25867 77.2222 0.896C77.6276 0.512 78.0969 0.32 78.6302 0.32ZM64.3582 9.632H78.6302V13.312H64.3582V9.632ZM93.6302 5.344L86.7182 21.6C86.5689 22.0053 86.3342 22.3253 86.0142 22.56C85.7156 22.7733 85.3849 22.88 85.0222 22.88C84.4462 22.88 84.0196 22.72 83.7422 22.4C83.4649 22.08 83.3262 21.6853 83.3262 21.216C83.3262 21.024 83.3582 20.8213 83.4222 20.608L91.3902 1.472C91.5609 1.04533 91.8169 0.714667 92.1582 0.48C92.5209 0.245333 92.9049 0.149333 93.3102 0.191999C93.6942 0.191999 94.0462 0.309333 94.3662 0.544001C94.7076 0.757334 94.9529 1.06667 95.1022 1.472L102.974 20.224C103.081 20.5013 103.134 20.7573 103.134 20.992C103.134 21.568 102.942 22.0267 102.558 22.368C102.196 22.7093 101.79 22.88 101.342 22.88C100.958 22.88 100.606 22.7627 100.286 22.528C99.9876 22.2933 99.7529 21.9733 99.5822 21.568L92.7022 5.536L93.6302 5.344ZM87.7102 17.696L89.4702 14.016H98.1102L98.7182 17.696H87.7102ZM118.196 18.976C118.75 18.976 119.209 19.1573 119.572 19.52C119.956 19.8613 120.148 20.3093 120.148 20.864C120.148 21.3973 119.956 21.8453 119.572 22.208C119.209 22.5493 118.75 22.72 118.196 22.72H107.796C107.241 22.72 106.772 22.5387 106.388 22.176C106.025 21.792 105.844 21.3227 105.844 20.768V2.272C105.844 1.71733 106.036 1.25867 106.42 0.896C106.804 0.512 107.294 0.32 107.892 0.32C108.404 0.32 108.852 0.512 109.236 0.896C109.641 1.25867 109.844 1.71733 109.844 2.272V19.52L109.14 18.976H118.196ZM127.812 20.768C127.812 21.3227 127.61 21.792 127.204 22.176C126.799 22.5387 126.33 22.72 125.796 22.72C125.199 22.72 124.719 22.5387 124.356 22.176C123.994 21.792 123.812 21.3227 123.812 20.768V2.272C123.812 1.71733 124.004 1.25867 124.388 0.896C124.772 0.512 125.263 0.32 125.86 0.32C126.372 0.32 126.82 0.512 127.204 0.896C127.61 1.25867 127.812 1.71733 127.812 2.272V20.768ZM134.577 0.32H145.297C145.852 0.32 146.31 0.501333 146.673 0.864C147.057 1.20533 147.249 1.65333 147.249 2.208C147.249 2.74133 147.057 3.17867 146.673 3.52C146.31 3.84 145.852 4 145.297 4H136.337L136.625 3.456V9.696L136.369 9.44H143.857C144.412 9.44 144.87 9.62133 145.233 9.984C145.617 10.3253 145.809 10.7733 145.809 11.328C145.809 11.8613 145.617 12.2987 145.233 12.64C144.87 12.96 144.412 13.12 143.857 13.12H136.465L136.625 12.864V19.328L136.369 19.04H145.297C145.852 19.04 146.31 19.232 146.673 19.616C147.057 19.9787 147.249 20.4053 147.249 20.896C147.249 21.4293 147.057 21.8667 146.673 22.208C146.31 22.5493 145.852 22.72 145.297 22.72H134.577C134.022 22.72 133.553 22.5387 133.169 22.176C132.806 21.792 132.625 21.3227 132.625 20.768V2.272C132.625 1.71733 132.806 1.25867 133.169 0.896C133.553 0.512 134.022 0.32 134.577 0.32ZM175.33 22.72C174.733 22.72 174.253 22.4747 173.89 21.984L166.498 12.256L169.41 9.28L177.058 19.392C177.357 19.7973 177.506 20.2347 177.506 20.704C177.506 21.3013 177.282 21.792 176.834 22.176C176.386 22.5387 175.885 22.72 175.33 22.72ZM175.714 0.16C176.226 0.16 176.642 0.373333 176.962 0.799999C177.304 1.20533 177.474 1.62133 177.474 2.048C177.474 2.496 177.282 2.912 176.898 3.296L163.49 16.128L163.33 11.552L174.146 0.896C174.637 0.405333 175.16 0.16 175.714 0.16ZM161.89 22.72C161.293 22.72 160.813 22.5387 160.45 22.176C160.088 21.792 159.906 21.3227 159.906 20.768V2.272C159.906 1.71733 160.098 1.25867 160.482 0.896C160.866 0.512 161.357 0.32 161.954 0.32C162.552 0.32 163.021 0.512 163.362 0.896C163.725 1.25867 163.906 1.71733 163.906 2.272V20.768C163.906 21.3227 163.725 21.792 163.362 22.176C163 22.5387 162.509 22.72 161.89 22.72ZM200.514 11.52C200.514 13.12 200.248 14.6133 199.714 16C199.181 17.3867 198.424 18.6133 197.442 19.68C196.482 20.7253 195.33 21.5467 193.986 22.144C192.664 22.7413 191.213 23.04 189.634 23.04C188.056 23.04 186.605 22.7413 185.282 22.144C183.96 21.5467 182.808 20.7253 181.826 19.68C180.866 18.6133 180.12 17.3867 179.586 16C179.053 14.6133 178.786 13.12 178.786 11.52C178.786 9.92 179.053 8.42667 179.586 7.04C180.12 5.65333 180.866 4.43733 181.826 3.392C182.808 2.32533 183.96 1.49333 185.282 0.896C186.605 0.298667 188.056 0 189.634 0C191.213 0 192.664 0.298667 193.986 0.896C195.33 1.49333 196.482 2.32533 197.442 3.392C198.424 4.43733 199.181 5.65333 199.714 7.04C200.248 8.42667 200.514 9.92 200.514 11.52ZM196.354 11.52C196.354 10.0907 196.066 8.8 195.49 7.648C194.914 6.47467 194.125 5.54667 193.122 4.864C192.12 4.18133 190.957 3.84 189.634 3.84C188.312 3.84 187.149 4.18133 186.146 4.864C185.144 5.54667 184.354 6.464 183.778 7.616C183.224 8.768 182.946 10.0693 182.946 11.52C182.946 12.9493 183.224 14.2507 183.778 15.424C184.354 16.576 185.144 17.4933 186.146 18.176C187.149 18.8587 188.312 19.2 189.634 19.2C190.957 19.2 192.12 18.8587 193.122 18.176C194.125 17.4933 194.914 16.576 195.49 15.424C196.066 14.2507 196.354 12.9493 196.354 11.52ZM206.491 22.72C205.894 22.72 205.361 22.5387 204.891 22.176C204.422 21.792 204.187 21.3227 204.187 20.768V2.272C204.187 1.71733 204.369 1.25867 204.731 0.896C205.115 0.512 205.585 0.32 206.139 0.32H215.355C216.465 0.32 217.499 0.618666 218.459 1.216C219.441 1.792 220.23 2.60267 220.827 3.648C221.425 4.672 221.723 5.856 221.723 7.2C221.723 8.01067 221.553 8.8 221.211 9.568C220.891 10.336 220.443 11.0293 219.867 11.648C219.313 12.2667 218.683 12.7467 217.979 13.088L218.011 12.352C218.609 12.672 219.099 13.056 219.483 13.504C219.889 13.9307 220.198 14.4 220.411 14.912C220.646 15.4027 220.785 15.936 220.827 16.512C220.913 17.0453 220.966 17.5147 220.987 17.92C221.03 18.3253 221.094 18.6667 221.179 18.944C221.286 19.2213 221.478 19.4347 221.755 19.584C222.225 19.8613 222.513 20.2667 222.619 20.8C222.747 21.312 222.63 21.7707 222.267 22.176C222.033 22.4533 221.734 22.6347 221.371 22.72C221.009 22.784 220.646 22.784 220.283 22.72C219.921 22.6347 219.622 22.528 219.387 22.4C219.025 22.1867 218.662 21.8773 218.299 21.472C217.937 21.0453 217.638 20.48 217.403 19.776C217.19 19.072 217.083 18.1653 217.083 17.056C217.083 16.6933 217.019 16.3627 216.891 16.064C216.763 15.744 216.582 15.4773 216.347 15.264C216.113 15.0293 215.814 14.8587 215.451 14.752C215.089 14.624 214.662 14.56 214.171 14.56H207.707L208.187 13.824V20.768C208.187 21.3227 208.038 21.792 207.739 22.176C207.441 22.5387 207.025 22.72 206.491 22.72ZM207.739 11.264H215.195C215.579 11.264 215.953 11.0933 216.315 10.752C216.678 10.3893 216.977 9.90933 217.211 9.312C217.446 8.69333 217.563 8.02133 217.563 7.296C217.563 6.35733 217.307 5.57867 216.795 4.96C216.305 4.32 215.771 4 215.195 4H207.803L208.187 2.976V12.032L207.739 11.264ZM228.204 0.32C228.716 0.32 229.164 0.512 229.548 0.896C229.954 1.25867 230.156 1.71733 230.156 2.272V20.768C230.156 21.3227 229.954 21.792 229.548 22.176C229.143 22.5387 228.674 22.72 228.14 22.72C227.543 22.72 227.063 22.5387 226.7 22.176C226.338 21.792 226.156 21.3227 226.156 20.768V2.272C226.156 1.71733 226.348 1.25867 226.732 0.896C227.116 0.512 227.607 0.32 228.204 0.32ZM242.38 0.32C242.978 0.32 243.458 0.512 243.82 0.896C244.183 1.25867 244.364 1.71733 244.364 2.272V20.768C244.364 21.3227 244.172 21.792 243.788 22.176C243.426 22.5387 242.935 22.72 242.316 22.72C241.804 22.72 241.346 22.5387 240.94 22.176C240.556 21.792 240.364 21.3227 240.364 20.768V2.272C240.364 1.71733 240.567 1.25867 240.972 0.896C241.378 0.512 241.847 0.32 242.38 0.32ZM228.108 9.632H242.38V13.312H228.108V9.632ZM269.764 11.52C269.764 13.12 269.498 14.6133 268.964 16C268.431 17.3867 267.674 18.6133 266.692 19.68C265.732 20.7253 264.58 21.5467 263.236 22.144C261.914 22.7413 260.463 23.04 258.884 23.04C257.306 23.04 255.855 22.7413 254.532 22.144C253.21 21.5467 252.058 20.7253 251.076 19.68C250.116 18.6133 249.37 17.3867 248.836 16C248.303 14.6133 248.036 13.12 248.036 11.52C248.036 9.92 248.303 8.42667 248.836 7.04C249.37 5.65333 250.116 4.43733 251.076 3.392C252.058 2.32533 253.21 1.49333 254.532 0.896C255.855 0.298667 257.306 0 258.884 0C260.463 0 261.914 0.298667 263.236 0.896C264.58 1.49333 265.732 2.32533 266.692 3.392C267.674 4.43733 268.431 5.65333 268.964 7.04C269.498 8.42667 269.764 9.92 269.764 11.52ZM265.604 11.52C265.604 10.0907 265.316 8.8 264.74 7.648C264.164 6.47467 263.375 5.54667 262.372 4.864C261.37 4.18133 260.207 3.84 258.884 3.84C257.562 3.84 256.399 4.18133 255.396 4.864C254.394 5.54667 253.604 6.464 253.028 7.616C252.474 8.768 252.196 10.0693 252.196 11.52C252.196 12.9493 252.474 14.2507 253.028 15.424C253.604 16.576 254.394 17.4933 255.396 18.176C256.399 18.8587 257.562 19.2 258.884 19.2C260.207 19.2 261.37 18.8587 262.372 18.176C263.375 17.4933 264.164 16.576 264.74 15.424C265.316 14.2507 265.604 12.9493 265.604 11.52ZM290.429 0.32C290.941 0.32 291.357 0.490667 291.677 0.832001C291.997 1.17333 292.157 1.6 292.157 2.112V20.768C292.157 21.3227 291.965 21.792 291.581 22.176C291.219 22.5387 290.76 22.72 290.205 22.72C289.928 22.72 289.64 22.6773 289.341 22.592C289.064 22.4853 288.851 22.3467 288.701 22.176L276.125 6.208L276.957 5.696V20.928C276.957 21.44 276.787 21.8667 276.445 22.208C276.125 22.5493 275.699 22.72 275.165 22.72C274.653 22.72 274.237 22.5493 273.917 22.208C273.597 21.8667 273.437 21.44 273.437 20.928V2.272C273.437 1.71733 273.619 1.25867 273.981 0.896C274.365 0.512 274.835 0.32 275.389 0.32C275.688 0.32 275.997 0.384 276.317 0.512001C276.637 0.618668 276.872 0.789334 277.021 1.024L289.213 16.576L288.669 16.96V2.112C288.669 1.6 288.829 1.17333 289.149 0.832001C289.469 0.490667 289.896 0.32 290.429 0.32ZM298.921 0.32H309.641C310.195 0.32 310.654 0.501333 311.017 0.864C311.401 1.20533 311.593 1.65333 311.593 2.208C311.593 2.74133 311.401 3.17867 311.017 3.52C310.654 3.84 310.195 4 309.641 4H300.681L300.969 3.456V9.696L300.713 9.44H308.201C308.755 9.44 309.214 9.62133 309.577 9.984C309.961 10.3253 310.153 10.7733 310.153 11.328C310.153 11.8613 309.961 12.2987 309.577 12.64C309.214 12.96 308.755 13.12 308.201 13.12H300.809L300.969 12.864V19.328L300.713 19.04H309.641C310.195 19.04 310.654 19.232 311.017 19.616C311.401 19.9787 311.593 20.4053 311.593 20.896C311.593 21.4293 311.401 21.8667 311.017 22.208C310.654 22.5493 310.195 22.72 309.641 22.72H298.921C298.366 22.72 297.897 22.5387 297.513 22.176C297.15 21.792 296.969 21.3227 296.969 20.768V2.272C296.969 1.71733 297.15 1.25867 297.513 0.896C297.897 0.512 298.366 0.32 298.921 0.32ZM332.273 0.32C332.785 0.32 333.201 0.490667 333.521 0.832001C333.841 1.17333 334.001 1.6 334.001 2.112V20.768C334.001 21.3227 333.809 21.792 333.425 22.176C333.063 22.5387 332.604 22.72 332.049 22.72C331.772 22.72 331.484 22.6773 331.185 22.592C330.908 22.4853 330.695 22.3467 330.545 22.176L317.969 6.208L318.801 5.696V20.928C318.801 21.44 318.631 21.8667 318.289 22.208C317.969 22.5493 317.543 22.72 317.009 22.72C316.497 22.72 316.081 22.5493 315.761 22.208C315.441 21.8667 315.281 21.44 315.281 20.928V2.272C315.281 1.71733 315.463 1.25867 315.825 0.896C316.209 0.512 316.679 0.32 317.233 0.32C317.532 0.32 317.841 0.384 318.161 0.512001C318.481 0.618668 318.716 0.789334 318.865 1.024L331.057 16.576L330.513 16.96V2.112C330.513 1.6 330.673 1.17333 330.993 0.832001C331.313 0.490667 331.74 0.32 332.273 0.32ZM357.029 0.32C358.139 0.32 359.173 0.64 360.133 1.28C361.115 1.92 361.904 2.784 362.501 3.872C363.099 4.96 363.397 6.176 363.397 7.52C363.397 8.84267 363.099 10.048 362.501 11.136C361.904 12.224 361.115 13.0987 360.133 13.76C359.173 14.4 358.139 14.72 357.029 14.72H351.141L351.461 14.144V20.768C351.461 21.3227 351.291 21.792 350.949 22.176C350.608 22.5387 350.16 22.72 349.605 22.72C349.072 22.72 348.635 22.5387 348.293 22.176C347.952 21.792 347.781 21.3227 347.781 20.768V2.272C347.781 1.71733 347.963 1.25867 348.325 0.896C348.709 0.512 349.179 0.32 349.733 0.32H357.029ZM357.029 11.072C357.435 11.072 357.829 10.9013 358.213 10.56C358.597 10.2187 358.917 9.78133 359.173 9.248C359.429 8.69333 359.557 8.11733 359.557 7.52C359.557 6.90133 359.429 6.32533 359.173 5.792C358.917 5.25867 358.597 4.832 358.213 4.512C357.829 4.17067 357.435 4 357.029 4H351.077L351.461 3.424V11.584L351.109 11.072H357.029ZM374.262 23.04C372.769 23.04 371.425 22.8587 370.23 22.496C369.036 22.112 367.894 21.4507 366.806 20.512C366.529 20.2773 366.316 20.0107 366.166 19.712C366.017 19.4133 365.942 19.1147 365.942 18.816C365.942 18.3253 366.113 17.8987 366.454 17.536C366.817 17.152 367.265 16.96 367.798 16.96C368.204 16.96 368.566 17.088 368.886 17.344C369.697 18.0053 370.497 18.5067 371.286 18.848C372.097 19.1893 373.089 19.36 374.262 19.36C375.052 19.36 375.777 19.2427 376.438 19.008C377.1 18.752 377.633 18.4213 378.038 18.016C378.444 17.5893 378.646 17.1093 378.646 16.576C378.646 15.936 378.454 15.392 378.07 14.944C377.686 14.496 377.1 14.1227 376.31 13.824C375.521 13.504 374.518 13.2587 373.302 13.088C372.15 12.9173 371.137 12.6613 370.262 12.32C369.388 11.9573 368.652 11.5093 368.054 10.976C367.478 10.4213 367.041 9.78133 366.742 9.056C366.444 8.30933 366.294 7.47733 366.294 6.56C366.294 5.17333 366.646 3.98933 367.35 3.008C368.076 2.02667 369.046 1.28 370.262 0.768C371.478 0.256 372.822 0 374.294 0C375.681 0 376.961 0.213333 378.134 0.639999C379.329 1.04533 380.3 1.568 381.046 2.208C381.665 2.69867 381.974 3.264 381.974 3.904C381.974 4.37333 381.793 4.8 381.43 5.184C381.068 5.568 380.641 5.76 380.15 5.76C379.83 5.76 379.542 5.664 379.286 5.472C378.945 5.17333 378.486 4.896 377.91 4.64C377.334 4.36267 376.726 4.13867 376.086 3.968C375.446 3.776 374.849 3.68 374.294 3.68C373.377 3.68 372.598 3.79733 371.958 4.032C371.34 4.26667 370.87 4.58667 370.55 4.992C370.23 5.39733 370.07 5.86667 370.07 6.4C370.07 7.04 370.252 7.57333 370.614 8C370.998 8.40533 371.542 8.736 372.246 8.992C372.95 9.22667 373.793 9.44 374.774 9.632C376.054 9.86667 377.174 10.144 378.134 10.464C379.116 10.784 379.926 11.2 380.566 11.712C381.206 12.2027 381.686 12.832 382.006 13.6C382.326 14.3467 382.486 15.264 382.486 16.352C382.486 17.7387 382.102 18.9333 381.334 19.936C380.566 20.9387 379.553 21.7067 378.294 22.24C377.057 22.7733 375.713 23.04 374.262 23.04ZM399.959 0.224001C400.45 0.224001 400.887 0.416 401.271 0.799999C401.677 1.16267 401.879 1.632 401.879 2.208C401.879 2.4 401.847 2.60267 401.783 2.816C401.741 3.008 401.655 3.2 401.527 3.392L394.263 13.792L394.839 11.584V20.768C394.839 21.3227 394.647 21.792 394.263 22.176C393.901 22.5387 393.474 22.72 392.983 22.72C392.45 22.72 391.991 22.5387 391.607 22.176C391.245 21.792 391.063 21.3227 391.063 20.768V11.84L391.319 12.864L384.407 3.68C384.194 3.40267 384.045 3.136 383.959 2.88C383.874 2.624 383.831 2.38933 383.831 2.176C383.831 1.6 384.055 1.13067 384.503 0.768C384.951 0.405334 385.41 0.224001 385.879 0.224001C386.477 0.224001 386.999 0.522668 387.447 1.12L393.591 9.6L392.695 9.472L398.359 1.184C398.807 0.544001 399.341 0.224001 399.959 0.224001ZM420.174 22.72C419.577 22.72 419.097 22.4747 418.734 21.984L411.342 12.256L414.254 9.28L421.902 19.392C422.201 19.7973 422.35 20.2347 422.35 20.704C422.35 21.3013 422.126 21.792 421.678 22.176C421.23 22.5387 420.729 22.72 420.174 22.72ZM420.558 0.16C421.07 0.16 421.486 0.373333 421.806 0.799999C422.147 1.20533 422.318 1.62133 422.318 2.048C422.318 2.496 422.126 2.912 421.742 3.296L408.334 16.128L408.174 11.552L418.99 0.896C419.481 0.405333 420.003 0.16 420.558 0.16ZM406.734 22.72C406.137 22.72 405.657 22.5387 405.294 22.176C404.931 21.792 404.75 21.3227 404.75 20.768V2.272C404.75 1.71733 404.942 1.25867 405.326 0.896C405.71 0.512 406.201 0.32 406.798 0.32C407.395 0.32 407.865 0.512 408.206 0.896C408.569 1.25867 408.75 1.71733 408.75 2.272V20.768C408.75 21.3227 408.569 21.792 408.206 22.176C407.843 22.5387 407.353 22.72 406.734 22.72ZM445.358 11.52C445.358 13.12 445.091 14.6133 444.558 16C444.025 17.3867 443.267 18.6133 442.286 19.68C441.326 20.7253 440.174 21.5467 438.83 22.144C437.507 22.7413 436.057 23.04 434.478 23.04C432.899 23.04 431.449 22.7413 430.126 22.144C428.803 21.5467 427.651 20.7253 426.67 19.68C425.71 18.6133 424.963 17.3867 424.43 16C423.897 14.6133 423.63 13.12 423.63 11.52C423.63 9.92 423.897 8.42667 424.43 7.04C424.963 5.65333 425.71 4.43733 426.67 3.392C427.651 2.32533 428.803 1.49333 430.126 0.896C431.449 0.298667 432.899 0 434.478 0C436.057 0 437.507 0.298667 438.83 0.896C440.174 1.49333 441.326 2.32533 442.286 3.392C443.267 4.43733 444.025 5.65333 444.558 7.04C445.091 8.42667 445.358 9.92 445.358 11.52ZM441.198 11.52C441.198 10.0907 440.91 8.8 440.334 7.648C439.758 6.47467 438.969 5.54667 437.966 4.864C436.963 4.18133 435.801 3.84 434.478 3.84C433.155 3.84 431.993 4.18133 430.99 4.864C429.987 5.54667 429.198 6.464 428.622 7.616C428.067 8.768 427.79 10.0693 427.79 11.52C427.79 12.9493 428.067 14.2507 428.622 15.424C429.198 16.576 429.987 17.4933 430.99 18.176C431.993 18.8587 433.155 19.2 434.478 19.2C435.801 19.2 436.963 18.8587 437.966 18.176C438.969 17.4933 439.758 16.576 440.334 15.424C440.91 14.2507 441.198 12.9493 441.198 11.52ZM461.383 18.976C461.938 18.976 462.397 19.1573 462.759 19.52C463.143 19.8613 463.335 20.3093 463.335 20.864C463.335 21.3973 463.143 21.8453 462.759 22.208C462.397 22.5493 461.938 22.72 461.383 22.72H450.983C450.429 22.72 449.959 22.5387 449.575 22.176C449.213 21.792 449.031 21.3227 449.031 20.768V2.272C449.031 1.71733 449.223 1.25867 449.607 0.896C449.991 0.512 450.482 0.32 451.079 0.32C451.591 0.32 452.039 0.512 452.423 0.896C452.829 1.25867 453.031 1.71733 453.031 2.272V19.52L452.327 18.976H461.383ZM487.295 11.52C487.295 13.12 487.029 14.6133 486.495 16C485.962 17.3867 485.205 18.6133 484.223 19.68C483.263 20.7253 482.111 21.5467 480.767 22.144C479.445 22.7413 477.994 23.04 476.415 23.04C474.837 23.04 473.386 22.7413 472.063 22.144C470.741 21.5467 469.589 20.7253 468.607 19.68C467.647 18.6133 466.901 17.3867 466.367 16C465.834 14.6133 465.567 13.12 465.567 11.52C465.567 9.92 465.834 8.42667 466.367 7.04C466.901 5.65333 467.647 4.43733 468.607 3.392C469.589 2.32533 470.741 1.49333 472.063 0.896C473.386 0.298667 474.837 0 476.415 0C477.994 0 479.445 0.298667 480.767 0.896C482.111 1.49333 483.263 2.32533 484.223 3.392C485.205 4.43733 485.962 5.65333 486.495 7.04C487.029 8.42667 487.295 9.92 487.295 11.52ZM483.135 11.52C483.135 10.0907 482.847 8.8 482.271 7.648C481.695 6.47467 480.906 5.54667 479.903 4.864C478.901 4.18133 477.738 3.84 476.415 3.84C475.093 3.84 473.93 4.18133 472.927 4.864C471.925 5.54667 471.135 6.464 470.559 7.616C470.005 8.768 469.727 10.0693 469.727 11.52C469.727 12.9493 470.005 14.2507 470.559 15.424C471.135 16.576 471.925 17.4933 472.927 18.176C473.93 18.8587 475.093 19.2 476.415 19.2C477.738 19.2 478.901 18.8587 479.903 18.176C480.906 17.4933 481.695 16.576 482.271 15.424C482.847 14.2507 483.135 12.9493 483.135 11.52ZM501.529 23.04C499.907 23.04 498.393 22.7413 496.985 22.144C495.577 21.5467 494.339 20.7253 493.273 19.68C492.206 18.6133 491.363 17.3867 490.745 16C490.147 14.6133 489.849 13.12 489.849 11.52C489.849 9.92 490.147 8.42667 490.745 7.04C491.363 5.65333 492.206 4.43733 493.273 3.392C494.339 2.32533 495.577 1.49333 496.985 0.896C498.393 0.298667 499.907 0 501.529 0C502.531 0 503.502 0.106667 504.441 0.32C505.379 0.533333 506.243 0.853333 507.033 1.28C507.353 1.45067 507.587 1.68533 507.737 1.984C507.907 2.26133 507.993 2.54933 507.993 2.848C507.993 3.36 507.822 3.81867 507.481 4.224C507.139 4.62933 506.702 4.832 506.169 4.832C505.998 4.832 505.817 4.81067 505.625 4.768C505.454 4.72533 505.283 4.66133 505.113 4.576C504.579 4.34133 504.014 4.16 503.417 4.032C502.819 3.904 502.19 3.84 501.529 3.84C500.142 3.84 498.873 4.192 497.721 4.896C496.59 5.57867 495.683 6.50667 495.001 7.68C494.339 8.832 494.009 10.112 494.009 11.52C494.009 12.9067 494.339 14.1867 495.001 15.36C495.683 16.5333 496.59 17.472 497.721 18.176C498.873 18.8587 500.142 19.2 501.529 19.2C502.169 19.2 502.873 19.136 503.641 19.008C504.409 18.88 505.038 18.7093 505.529 18.496L505.241 19.456V13.984L505.785 14.464H502.233C501.678 14.464 501.209 14.2827 500.825 13.92C500.462 13.5573 500.281 13.0987 500.281 12.544C500.281 11.9893 500.462 11.5307 500.825 11.168C501.209 10.8053 501.678 10.624 502.233 10.624H507.481C508.035 10.624 508.494 10.816 508.857 11.2C509.219 11.5627 509.401 12.0213 509.401 12.576V19.36C509.401 19.7867 509.294 20.1387 509.081 20.416C508.889 20.6933 508.665 20.9173 508.409 21.088C507.427 21.6853 506.35 22.1653 505.177 22.528C504.025 22.8693 502.809 23.04 501.529 23.04ZM530.443 5.344L523.531 21.6C523.381 22.0053 523.147 22.3253 522.827 22.56C522.528 22.7733 522.197 22.88 521.835 22.88C521.259 22.88 520.832 22.72 520.555 22.4C520.277 22.08 520.139 21.6853 520.139 21.216C520.139 21.024 520.171 20.8213 520.235 20.608L528.203 1.472C528.373 1.04533 528.629 0.714667 528.971 0.48C529.333 0.245333 529.717 0.149333 530.123 0.191999C530.507 0.191999 530.859 0.309333 531.179 0.544001C531.52 0.757334 531.765 1.06667 531.915 1.472L539.787 20.224C539.893 20.5013 539.947 20.7573 539.947 20.992C539.947 21.568 539.755 22.0267 539.371 22.368C539.008 22.7093 538.603 22.88 538.155 22.88C537.771 22.88 537.419 22.7627 537.099 22.528C536.8 22.2933 536.565 21.9733 536.395 21.568L529.515 5.536L530.443 5.344ZM524.523 17.696L526.283 14.016H534.923L535.531 17.696H524.523ZM552.672 0.32C554.72 0.32 556.246 0.8 557.248 1.76C558.251 2.72 558.752 4.13867 558.752 6.016C558.752 7.01867 558.507 7.904 558.016 8.672C557.526 9.41867 556.8 10.0053 555.84 10.432C554.88 10.8373 553.696 11.04 552.288 11.04L552.416 9.6C553.078 9.6 553.835 9.696 554.688 9.888C555.542 10.0587 556.363 10.3787 557.152 10.848C557.963 11.296 558.624 11.936 559.136 12.768C559.67 13.5787 559.936 14.624 559.936 15.904C559.936 17.312 559.702 18.464 559.232 19.36C558.784 20.256 558.187 20.9493 557.44 21.44C556.694 21.9307 555.894 22.272 555.04 22.464C554.187 22.6347 553.366 22.72 552.576 22.72H544.608C544.054 22.72 543.584 22.5387 543.2 22.176C542.838 21.792 542.656 21.3227 542.656 20.768V2.272C542.656 1.71733 542.838 1.25867 543.2 0.896C543.584 0.512 544.054 0.32 544.608 0.32H552.672ZM552.096 4.096H546.4L546.816 3.584V9.376L546.432 9.088H552.192C552.811 9.088 553.366 8.88533 553.856 8.48C554.347 8.07467 554.592 7.488 554.592 6.72C554.592 5.80267 554.358 5.14133 553.888 4.736C553.44 4.30933 552.843 4.096 552.096 4.096ZM552.352 12.864H546.528L546.816 12.608V19.36L546.496 19.04H552.576C553.558 19.04 554.336 18.784 554.912 18.272C555.488 17.7387 555.776 16.9493 555.776 15.904C555.776 14.944 555.584 14.2507 555.2 13.824C554.816 13.3973 554.358 13.1307 553.824 13.024C553.291 12.9173 552.8 12.864 552.352 12.864Z" fill="#303030"/>
</svg>
